<svg xmlns="http://www.w3.org/2000/svg" viewBox="0 0 24 24" role="img" aria-label="Firefox">
  <defs>
    <radialGradient id="ff-a" cx="13" cy="13" r="11" gradientUnits="userSpaceOnUse">
      <stop offset="0" stop-color="#ffd35a"/>
      <stop offset="0.45" stop-color="#ff8a1c"/>
      <stop offset="0.78" stop-color="#e84a5f"/>
      <stop offset="1" stop-color="#6f2dbd"/>
    </radialGradient>
    <linearGradient id="ff-b" x1="6" y1="3" x2="19" y2="21" gradientUnits="userSpaceOnUse">
      <stop offset="0" stop-color="#ffea70"/>
      <stop offset="0.45" stop-color="#ff7a18"/>
      <stop offset="1" stop-color="#d7266b"/>
    </linearGradient>
  </defs>
  <circle cx="12" cy="12" r="10" fill="url(#ff-a)"/>
  <path fill="url(#ff-b)" d="M19.6 7.2c.5 1.1.8 2.3.8 3.8 0 5.2-4.2 9.4-9.4 9.4-3.7 0-6.9-2.2-8.4-5.3 1.2 1.3 2.9 2.1 5 2.1 4.7 0 7.7-3.4 7.7-7.1 0-1.7-.7-3-1.7-4 .7.1 1.4.4 2 .8-.2-1.5-1-2.8-2.1-3.7 2.6.6 4.7 2 6.1 4z"/>
  <path fill="#fff2a6" d="M7.3 12.7c0-2.4 1.9-4.3 4.3-4.3 1 0 1.9.3 2.6.9-.6-1.5-2-2.6-3.8-2.6-2.7 0-5 2.2-5 5 0 2.3 1.5 4.2 3.6 4.8-1.1-.8-1.7-2.1-1.7-3.8z" opacity=".95"/>
</svg>
